<?xml version="1.0" encoding="UTF-8" standalone="no"?>
<svg xmlns:rdf="http://www.w3.org/1999/02/22-rdf-syntax-ns#" xmlns="http://www.w3.org/2000/svg" height="144.46898" width="171.72" version="1.1" xmlns:cc="http://creativecommons.org/ns#" xmlns:dc="http://purl.org/dc/elements/1.1/" viewBox="0 0 171.72 144.46898"><path d="M85.86,24.69016A121.70644,121.70644,0,0,0,23.67552,41.69789L23.289,41.263c-.72476-.86971-1.20793-2.70577-.33822-5.3149L31.69621,9.80842a3.65982,3.65982,0,0,0-1.83606-3.962L20.87311,0l-2.899.77307a3.05186,3.05186,0,0,0-2.07764,2.80242l-5.17,33.00076a11.843,11.843,0,0,0,2.60914,8.31058l2.02933,2.22261A91.505,91.505,0,0,0,0,60.20345C5.89473,95.28187,36.9628,129.73217,85.86,144.469c48.84888-14.73681,79.96527-49.18711,85.86-84.26553C171.72,60.20345,140.45864,24.69016,85.86,24.69016Z" fill="#ffa300"/><path d="M85.86,28.314A117.39146,117.39146,0,0,0,26.38129,44.93516L29.47361,48.559l1.15962,1.35288,4.107,4.83174,6.61949,7.7791A16.68249,16.68249,0,0,0,43.389,55.6133L46.33638,59.527l2.85072,3.81707,1.88438,2.46419a11.63611,11.63611,0,0,1-3.67212,3.81707L59.23712,83.58906c-1.981-.38653-3.962-.77307-5.943-1.25625L43.19575,71.02655a10.6086,10.6086,0,0,1-3.044-.09665,17.28079,17.28079,0,0,1-5.99136-2.31922,11.06825,11.06825,0,0,0,2.70578-1.30458,11.961,11.961,0,0,0,1.73943-1.35288L18.02238,42.90583a10.128,10.128,0,0,1-2.22259-8.6005l2.65745-16.86277,1.20794-7.58582.67644-4.39688L20.87311,2.126l-1.73943.48318c-.72475.19326-1.01466.8697-1.15961,1.59448L13.0457,35.89981a9.67466,9.67466,0,0,0,1.88437,7.29592l5.17,5.70146A98.28967,98.28967,0,0,0,4.39688,61.55634c7.151,39.282,47.93085,68.99723,81.46312,78.709,33.48394-9.71179,74.26382-39.427,81.46313-78.709C167.32313,61.55634,135.72355,28.314,85.86,28.314Z" fill="#041e42"/><path d="M85.86,32.421c-23.53056,0-43.244,8.40722-56.38639,16.138l1.15962,1.3529C43.82387,43.53394,63.15083,36.7212,85.86,36.7212c48.559,0,74.94027,31.55125,74.94027,31.55125a21.56464,21.56464,0,0,0,1.6428-4.97669S135.0471,32.421,85.86,32.421ZM11.98271,61.07315a106.24622,106.24622,0,0,1,12.12766-7.77909l-.8214-.86971A94.50327,94.50327,0,0,0,11.98271,61.07315Z" fill="#5c88da"/><path d="M104.99366,60.05848l4.68679-2.17429s2.07765.33822,5.07333,1.01467a64.12369,64.12369,0,0,1,12.90075,4.15529,125.73558,125.73558,0,0,0-15.7998-2.56082C107.55449,60.05848,104.99366,60.05848,104.99366,60.05848ZM99.67876,48.269s14.64016,1.981,22.46758,6.76444c0,0-3.962-.72477-8.50386-1.063-1.49784-.145-3.044-.24158-4.54184-.24158a23.80843,23.80843,0,0,0-5.8464.43485s2.56082-1.59447,4.20362-2.36755A59.80108,59.80108,0,0,0,99.67876,48.269Zm30.39164,4.83173,2.02932-1.25625c-43.05079-22.41926-86.05326-2.8024-86.05326-2.8024,28.99042-4.05866,39.18539-1.063,39.18539-1.063A46.753,46.753,0,0,0,58.27075,59.5753c20.58321-7.82742,33.04909-4.30024,33.04909-4.30024C66.43639,61.55631,60.63831,74.69864,60.63831,74.69864c17.73247-11.4029,31.1164-8.69713,33.77384-7.97236a60.558,60.558,0,0,0-9.1803,8.31058c41.45632-18.0707,65.615-1.25625,65.615-1.25625C143.88916,59.527,130.0704,53.10076,130.0704,53.10076Z" fill="#862633"/><path d="M31.01976,67.78927A5.79655,5.79655,0,0,1,33.38732,63.489l3.47884,3.81707a11.0681,11.0681,0,0,1-2.70577,1.30458,17.281,17.281,0,0,0,5.99136,2.31922l9.51852,10.43656C38.94381,78.32246,31.01976,73.684,31.01976,67.78927Zm91.56145,2.56081a76.89806,76.89806,0,0,0-7.68247.33824c-15.36493,1.49784-23.57888,7.151-23.57888,7.151,5.89472-.77307,16.57286-2.46418,16.57286,1.063,0,3.18894-7.4892,5.21827-17.29762,6.03967-3.43054.28991-7.10266.43485-10.87141.43485q-3.91372,0-7.82742-.2899a120.74985,120.74985,0,0,1-12.65916-1.49784c-1.981-.38654-3.962-.77307-5.943-1.25625L43.19574,71.02654a9.04644,9.04644,0,0,0,4.20361-1.40121,11.63625,11.63625,0,0,0,3.67212-3.81708L49.1871,63.34406A8.71166,8.71166,0,0,1,42.471,67.11283,12.8182,12.8182,0,0,0,46.33637,59.527L43.389,55.61329a7.40679,7.40679,0,0,0-4.68679-1.30458,19.47354,19.47354,0,0,0-3.962.43486l6.61948,7.77911a13.59118,13.59118,0,0,1-2.75409,3.43053L18.02238,42.90582a10.12794,10.12794,0,0,1-2.2226-8.60049l2.65746-16.86277,1.20794-7.58584.67644-4.39688L20.87311,2.126l-1.73943.48316c-.72476.19328-1.01468.86972-1.15962,1.59448l-4.92837,31.6962a9.67463,9.67463,0,0,0,1.88437,7.29593l5.17,5.70144L23.289,52.42434l.82139.86971,3.57549,3.962c-5.65314,2.899-10.38824,7.87574-10.38824,14.10869,0,7.006,6.9577,20.00339,19.76181,32.5176a111.96581,111.96581,0,0,0,49.622,28.21735c28.74884-10.38823,49.09046-24.98009,54.647-40.15175a24.11643,24.11643,0,0,0,1.54615-8.35891C142.87451,71.60635,130.94011,70.35008,122.58121,70.35008Z" fill="#862633"/><path d="M43.19575,71.02652a9.04614,9.04614,0,0,0,4.2036-1.40119,11.63627,11.63627,0,0,0,3.67213-3.81708L49.1871,63.34406A8.71166,8.71166,0,0,1,42.471,67.11283,12.81809,12.81809,0,0,0,46.33637,59.527L43.389,55.61328a16.68239,16.68239,0,0,1-2.02933,6.90938,13.591,13.591,0,0,1-2.75409,3.43055,11.96245,11.96245,0,0,1-1.73942,1.35288,11.06857,11.06857,0,0,1-2.70578,1.30456,17.28094,17.28094,0,0,0,5.99136,2.31924A10.6079,10.6079,0,0,0,43.19575,71.02652Z" fill="#b86125"/><path d="M122.58121,70.35008a76.89806,76.89806,0,0,0-7.68247.33824c-15.36493,1.49784-23.57888,7.151-23.57888,7.151s12.07934-3.81707,18.98873-3.81707c3.47885,0,7.29592.62813,7.29592,3.43054,0,4.59014-15.70315,7.19929-27.00941,7.48919-3.43054.28991-7.10266.43485-10.87141.43485q-3.91372,0-7.82742-.2899c-53.3424-3.044-48.46234-18.6505-48.46234-18.6505C14.012,78.56405,50.05681,99.34052,88.03427,99.48548c-27.05773,6.57116-45.27339-.77309-45.27339-.77309,15.79979,15.17167,41.02146,16.52455,41.02146,16.52455-24.7385,3.76875-41.408-7.19929-46.72291-11.35458a111.96581,111.96581,0,0,0,49.622,28.21735c28.74884-10.38823,49.09046-24.98009,54.647-40.15175a24.11643,24.11643,0,0,0,1.54615-8.35891C142.87451,71.60635,130.94011,70.35008,122.58121,70.35008Z" fill="#b86125"/><path d="M122.14635,55.03347s-3.962-.72476-8.50386-1.063c-1.49784-.145-3.044-.24159-4.54183-.24159a23.8095,23.8095,0,0,0-5.84642.43485s2.56083-1.59447,4.20362-2.36754a59.80108,59.80108,0,0,0-7.7791-3.52717S114.31893,50.25006,122.14635,55.03347Zm19.81012,12.65915s-16.71781-6.57115-35.51327-4.25193l5.41155-2.94736c-4.30026-.43485-6.86108-.43485-6.86108-.43485l4.68678-2.17428s2.07765.33822,5.07333,1.01466l3.81708-2.07765S129.5389,58.51232,141.95647,67.69262ZM93.68741,49.332c-12.65916.72477-15.99306,2.75411-15.99306,2.75411,14.302-.8214,20.0034,3.3339,20.0034,3.3339S81.70469,58.609,73.3941,65.71162c0,0,13.52887-4.83174,24.98009-1.9327l-3.962,2.94736a60.55761,60.55761,0,0,0-9.1803,8.3106c41.45631-18.07071,65.615-1.25627,65.615-1.25627s-6.95771-12.56251-26.3813-20.2933l2.27092-1.35288C106.05665,42.03609,83.6857,42.13273,67.741,44.2587,72.52438,43.77552,85.81166,43.19571,93.68741,49.332Z" fill="#b86125"/><path d="M130.0704,53.10078l2.02933-1.25625c-43.0508-22.41926-86.05326-2.80241-86.05326-2.80241A120.76261,120.76261,0,0,1,67.741,44.2587c15.94474-2.126,38.31569-2.2226,58.99553,7.87573l-2.27091,1.35289c19.42358,7.73078,26.38129,20.29331,26.38129,20.29331C143.88917,59.527,130.0704,53.10078,130.0704,53.10078Zm-7.48919,17.2493a76.89806,76.89806,0,0,0-7.68247.33824c3.3339.04831,12.36925.57981,12.36925,5.025,0,11.59618-32.32433,16.66949-54.45369,15.2683,38.84717,9.95338,55.08182-4.01034,55.08182-4.01034s-11.54786,18.50555-50.29841,20.43824c25.70486,3.81708,38.65392-1.15961,53.68062-11.64448-8.214,15.3166-31.26134,21.79114-44.452,26.28466,0,0,42.80921-2.51251,54.502-30.10174a24.11643,24.11643,0,0,0,1.54615-8.35891C142.87451,71.60635,130.94011,70.35008,122.58121,70.35008Z" fill="#ffa300"/><path d="M111.46822,51.84453a2.263,2.263,0,0,0-2.36755,1.88438c1.49784,0,3.044.09663,4.54183.24159A2.51186,2.51186,0,0,0,111.46822,51.84453Z" fill="#ffa300"/><path d="M118.57087,56.82121l-3.81708,2.07765a64.12376,64.12376,0,0,1,12.90075,4.1553,125.7351,125.7351,0,0,0-15.79978-2.56083l-5.41155,2.94736c18.79546-2.31922,35.51327,4.25193,35.51327,4.25193C129.53892,58.51232,118.57087,56.82121,118.57087,56.82121ZM18.45724,17.44256l6.57116,9.22861L19.66518,9.85672Zm7.4892,4.73508,2.126-6.32957L20.34162,5.45984Z" fill="#fff"/></svg>