<svg xmlns="http://www.w3.org/2000/svg" viewBox="0 0 249.478 212.944"><title>Calgary Flames light logo</title><g fill="#FFF"><path d="M105.755 199.397c-3.394 0-6.276 2.62-6.276 6.16 0 3.598 2.88 6.202 6.275 6.202 3.365 0 6.247-2.605 6.247-6.204 0-3.555-2.882-6.16-6.247-6.16zm0 11.323c-2.823 0-5.047-2.18-5.047-5.18 0-2.925 2.224-5.15 5.047-5.15 2.794 0 5.003 2.21 5.003 5.15 0 3-2.21 5.18-5.003 5.18z"/><path d="M108.593 204.035c0-1.42-.834-2.033-2.516-2.033h-2.72v7.14h1.082v-3.102h1.242l1.873 3.1h1.214l-2.02-3.144c1.04-.118 1.843-.688 1.843-1.96zm-4.154 1.097v-2.21h1.477c.746 0 1.55.177 1.55 1.054 0 1.083-.818 1.156-1.74 1.156h-1.288z"/></g><path d="M235.854 27.78C222.248 9.847 200.654 0 175.054 0c-19.808 0-35.9 8.002-48.847 14.424-7.885 3.92-14.688 7.3-19.647 7.3-3.116 0-8.002-5.97-10.475-10.197l-.95-1.638-1.61.935c-6.408 3.716-8.353 9.582-8.558 13.898-7.285-2.97-16.34-3.072-17.54-3.072-11.09.074-20.76 6.98-21.184 7.286-5.223 3.833-7.84 8.368-8.748 10.226-7.154 2.4-14.337 9.13-14.688 9.45-1.712 1.727-2.428 2.327-2.428 2.327-4.17 3.144-9.876 3.408-9.92 3.408l-2.004.06.205 1.99c.542 5.34 3.366 10.56 3.585 10.898 3.145 4.755 7.827 7.168 11.045 8.324a28.498 28.498 0 0 1-8.514 4.272C9.45 81.53 1.858 82.745 1.786 82.76L0 83.02l.22 1.8c.262 2.136 1.17 3.745 1.286 3.965 7.52 12.29 23.612 12.918 26.772 12.918h.454c1.375.146 3.335.073 4.99-.088-1.654 3.848-3.044 8.807-3.25 9.553-.906 3.774-2.676 5.252-2.793 5.34-2.27 1.843-8.603 5.618-8.662 5.662l-1.8 1.068 1.274 1.668c2.458 3.204 7.46 4.99 9.948 5.72.25 3.774 1.083 8.046 1.697 10.782a28.845 28.845 0 0 0-4.14-.293c-6.203 0-9.538 2.004-9.685 2.092l-2.18 1.33 1.916 1.67c2.677 2.34 4.74 5.543 4.755 5.587l.132.176c3.072 3.73 3.79 11.41 3.79 11.47.862 11.76 4.827 18.9 6.48 21.43 2.56 3.878 7.46 7.52 7.563 7.594 3.6 3.043 9.92 4.506 10.094 4.55.497.132.995.25 1.52.336a69.2 69.2 0 0 1-3.715 1.55l-1.858.718.833 1.814c2.253 4.9 8.266 7.71 9.158 8.105 5.37 3 13.943 3.394 14.308 3.41h.088c10.036-.09 18.067-7.857 18.345-8.135 8.34-7.578 12.846-9.45 20.19-8.88 4.446.336 8.47 2.063 13.107 4.038 7.227 3.087 16.195 6.934 30.502 6.934 46.564 0 85.697-44.75 91.74-84.908l.335-2.136H177.67l-.394 1.375c-.06.205-6.305 21.388-20.57 21.388-11.278 0-18.286-9.13-18.286-23.846 0-19.413 16.692-55.284 40.48-55.284 2.78 0 4.768.907 6.1 2.75 2.837 3.965 2.515 12.596-.85 22.53l-.85 2.486 62.892-.03.366-1.375c6.266-22.268 2.33-44.885-10.704-62.074zM52.958 131.27c-4.696-1.362-6.817-4.726-6.817-4.726 2.546-.717 3.79-4.39 5.633-4.813 2.955-.7 1.77 2.21 9.626 6.13 2.88 1.362 3.276 1.48 5.5 1.903-5.442 2.69-8.72 3.027-13.942 1.506z" fill="#FFF"/><path d="M244.807 89.34c12.318-44.15-16.663-87.467-69.767-87.467-32.01 0-54.86 21.74-68.494 21.74-5.603 0-12.098-11.163-12.098-11.163-9.45 5.457-7.417 15.375-7.417 15.375-7.416-4.374-19.588-4.3-19.588-4.3-10.62.087-20.086 6.92-20.086 6.92-6.26 4.578-8.514 10.254-8.514 10.254-7.066 2.062-14.717 9.26-14.717 9.26-1.873 1.9-2.62 2.47-2.62 2.47C16.782 56 10.52 56.206 10.52 56.206c.51 5.032 3.276 10.05 3.276 10.05 4.725 7.14 13.4 8.514 13.4 8.514s-4.418 4.65-11.864 6.933C9.817 83.385 2.062 84.6 2.062 84.6a9.163 9.163 0 0 0 1.025 3.204c7.797 12.742 25.704 12.01 25.704 12.01 3.06.367 8.223-.496 8.223-.496-2.18 3.058-4.725 12.303-4.725 12.303-1.097 4.58-3.423 6.32-3.423 6.32-2.4 1.976-8.88 5.838-8.88 5.838 2.838 3.716 10.27 5.398 10.27 5.398.146 6.042 2.37 14.556 2.37 14.556-10.08-2.12-15.332 1.083-15.332 1.083 2.91 2.56 5.106 5.97 5.106 5.97 3.495 4.212 4.227 12.507 4.227 12.507.73 9.904 3.79 16.882 6.174 20.525 2.415 3.643 7.228 7.212 7.228 7.212 3.262 2.764 9.377 4.14 9.377 4.14 4.228 1.17 8.25.306 8.25.306-2.72 2.253-10.298 5.164-10.298 5.164 2.12 4.594 8.31 7.212 8.31 7.212 5.017 2.838 13.53 3.204 13.53 3.204 9.393-.06 17.117-7.637 17.117-7.637 8.266-7.506 13.4-9.993 21.593-9.364 12.01.922 20.423 10.972 43.464 10.972 46.537 0 84.076-44.532 89.913-83.3h-62.16s-6.48 22.78-22.368 22.78c-12.113 0-20.174-9.817-20.174-25.734 0-20.817 17.366-57.157 42.367-57.157 11.703 0 11.63 14.176 7.037 27.752l58.823-.03zm-191.85 41.93c-4.695-1.362-6.816-4.726-6.816-4.726 2.546-.717 3.79-4.39 5.633-4.813 2.955-.7 1.77 2.21 9.626 6.13 2.88 1.362 3.276 1.48 5.5 1.903-5.442 2.69-8.72 3.027-13.942 1.506z" fill="#111"/><path d="M242.773 86.766c10.767-46.258-20.95-82.51-67.617-82.51-29.77 0-53.63 21.39-68.026 22.018-6.027.278-13.254-9.89-13.254-9.89-8.15 6.116-2.194 17.337-2.194 17.337-12.07-8.88-25.63-7.504-25.63-7.504-20.233 1.975-25.163 16.546-25.163 16.546C29.082 47.107 25 53.368 25 53.368c-7.27 5.252-11.5 4.74-11.5 4.74 2.766 15.214 18.64 14.483 18.64 14.483C25.88 84.676 5.5 86.578 5.5 86.578c7.27 11.66 24.59 10.62 24.59 10.62 5.94.63 13.987-2.574 17.966-4.373-2.648 1.404-3.89 2.502-3.89 2.502-7.652 5.37-7.49 15.185-11.426 22.178-1.52 3.13-5.91 4.637-8.353 6.554 2.632 1.33 5.63 2.428 8.484 2.926-.073 4.872 2.282 16.692 3.862 21.403-5.676-4.228-14.483-2.326-14.483-2.326 9.758 12.143 5.164 19.663 10.065 30.942 1.653 5.603 6.744 10.4 11.88 13.81 13.282 5.983 22.47-1.887 22.47-1.887-1.52 7.36-15.36 12.888-15.36 12.888 3.247 3.54 11.19 6.232 15.945 6.525 18.77 1.23 19.75-19.194 40.552-17.072 12.07 1.243 23.13 11.382 43.273 11.382 50.383 0 83.138-50.998 87.088-78.442H181.05s-7.004 22.892-23.99 22.892c-17.57 0-23.128-15.082-23.128-28.658 0-20.67 17.146-59.717 45.146-59.717 13.196 0 15.23 14.483 10.562 28.03h53.134v.01zM52.958 131.27c-4.696-1.362-6.817-4.726-6.817-4.726 2.546-.717 3.79-4.39 5.633-4.813 2.955-.7 1.77 2.21 9.626 6.13 2.88 1.362 3.276 1.48 5.5 1.903-5.442 2.69-8.72 3.027-13.942 1.506z" fill="#F3BC52"/><g fill="#CE1126"><path d="M43.113 65.13c6.26-1.2 10.416-7.593 16.897-8.5 3.643-.922 7.285.6 10.43 1.112-.1-.322-.51-.41-.51-.717-6.687-7.797-17.307-12.45-27.738-8.602-8.704 1.61-13.357 11.645-22.266 12.654-.088.307.41.512.41.82 5.455 6.276 15.77 5.866 22.777 3.233zM80.65 169.89v-.395c-10.927-4.038-18.915 7.885-29.638 1.712-9.51-3.13-9.61-16.195-19.238-19.325.82 2.428 1.93 4.652 2.34 7.183.513 10.533 3.35 21.973 12.86 27.123 3.95 2.136 9.61 2.136 13.664.205 7.77-4.053 11.528-13.358 20.013-16.503z"/><path d="M175.244 9.816c-27.78-.132-50.66 22.09-68.743 22.09-4.578 0-8.47-2.794-11.16-6.247.804 9.918 10.02 18.212 18.827 21.563-4.462.293-8.31-1.42-12.245-2.34-11.85-3.25-20.262-14.586-33.823-13.475-9.51-.307-17.922 5.486-22.574 13.37 2.326-2.135 5.062-3.437 8.002-4.037 6.993-1.228 13.05 1.903 17.614 6.672 5.662 8.997 11.938 17.716 21.256 23.992-6.686 0-12.552-2.53-18.418-4.564-12.055-3.438-26.333-1.916-35.432 6.686-4.652 7.607-12.45 13.766-21.052 15.58v.307l2.53 1.112c9.92 4.257 20.862.102 29.143-5.062 5.763-1.83 12.653-.82 16.706 3.76 2.838 4.842 8.105 9.7 12.757 13.254-1.214.497-2.428-.527-3.848-.527-7.988-3.95-20.042-9.304-28.132-1.916-7.593 5.78-3.745 16.91-11.85 22.383 5.676.497 8.91-3.643 12.157-7.695 8.09-5.983 13.254 4.77 19.735 7.285 6.876 3.35 15.99 2.238 20.95 9.333-5.268 1.01-10.637 1.93-15.186 4.637-6.994 4.374-17.205 5.076-24.798 1.434-3.95-2.135-6.686-5.06-9.304-8.718 0 .117 0 .307-.117.395.513 14.98 6.072 31.307 21.565 36.56 10.533 4.856 21.856-3.044 32.2 2.032-5.472 1.213-10.534 4.14-13.767 8.894-5.37 6.993-5.267 16.604-11.938 22.573-1.214 1.112-3.043 1.726-4.242 2.633 1.302.6 2.633.922 4.14 1.112 7.388 1.214 13.664-3.54 17.804-9.114 5.983-5.78 15.054-9.29 22.28-8.807 14.585.98 25.47 11.573 44.722 11.646 38.358.16 72.24-36.398 79.422-66.358h-45.263s-8.236 22.91-28.176 22.91c-24.855 0-29.215-23.232-29.215-34.76 0-27.08 21.227-65.788 51.232-65.788 14.234 0 22.602 14.542 17.98 28.366h40.888c7.505-33.338-17.116-70.965-62.628-71.17z"/></g><path d="M42.922 126.44c2.882 3.658 5.18 6.453 9.772 7.403 8.075 2.282 13.81-.25 19.97-4.11-2.634-1.288-4.156-1.508-6.7-2.78-8.925-2.81-10.373-9.452-15.055-8.003-2.97 1.873-4.946 5.764-8.354 6.876l.366.615zm18.463 1.42c2.882 1.36 3.277 1.478 5.5 1.902-5.426 2.692-8.703 3.028-13.926 1.507-4.697-1.362-6.818-4.726-6.818-4.726 2.545-.717 3.79-4.39 5.632-4.813 2.954-.702 1.755 2.21 9.61 6.13z" fill="#111"/><path d="M46.14 126.543s2.137 3.35 6.818 4.725c5.223 1.52 8.5 1.185 13.942-1.507-2.224-.423-2.62-.54-5.5-1.9-7.872-3.922-6.672-6.833-9.627-6.13-1.843.425-3.087 4.097-5.632 4.813zm6.057-3a3.74 3.74 0 0 1 .336-.043c.146.102.454.424.702.717 1.097 1.17 2.926 3.145 7.36 5.34.277.132.54.263.774.35-2.546.645-4.638.513-7.886-.438a11.31 11.31 0 0 1-4.462-2.488c.73-.63 1.317-1.346 1.83-2.004.438-.527 1.067-1.317 1.345-1.434z" fill="#FFF"/></svg>