<?xml version="1.0" encoding="UTF-8" standalone="no"?>
<svg xmlns:rdf="http://www.w3.org/1999/02/22-rdf-syntax-ns#" xmlns="http://www.w3.org/2000/svg" height="274.65446" width="245.84003" version="1.1" xmlns:cc="http://creativecommons.org/ns#" xmlns:dc="http://purl.org/dc/elements/1.1/" viewBox="0 0 245.84003 274.65446"><path d="M241.36239,80.97854c0,13.82762-1.98721,50.09408-20.20323,89.58975-22.356,48.43808-55.2277,76.67294-98.69776,99.19456-43.88407-22.77-76.59013-51.08769-98.78057-99.19456C5.46481,131.07262,3.47761,94.80615,3.47761,80.97854V30.55325C40.48927,11.26082,82.71734,3.47761,122.4614,3.47761c40.07527,0,82.13773,7.866,118.901,27.07565Zm1.5732-53.48889C208.408,9.522,166.75947,0,122.4614,0,78.08053,0,36.43206,9.522,1.9044,27.48965L0,28.40045V80.97854c0,13.99322,2.07,50.92209,20.53443,90.99736,20.78284,44.96047,50.75648,75.18253,100.271,100.85056l1.656.828,1.5732-.828c49.51448-25.66805,79.48813-55.89009,100.271-100.85057C242.85282,131.90061,244.84,94.97175,244.84,80.97852V28.40045Z" fill="#fff"/><path d="M119.39779,104.99058a10.22285,10.22285,0,0,0-1.49041.1656A10.22285,10.22285,0,0,1,119.39779,104.99058Zm-24.34324,5.5476.7452,1.49041Zm22.02484-5.2992c-.66241.0828-1.4076.2484-2.23561.414C115.67179,105.48738,116.417,105.32178,117.07939,105.239Z"/><path d="M234.904,80.97854c0,13.33082-1.90441,48.52088-19.54084,86.85734-20.61724,44.62929-51.83288,73.36093-92.90175,94.72336-40.90327-21.27963-72.28452-49.92849-92.90175-94.72336C11.84042,129.49941,9.936,94.30935,9.936,80.97854V34.44486C42.47647,17.47083,85.03574,9.936,122.4614,9.936c37.26006,0,79.90214,7.53481,112.44259,24.50884ZM3.47761,30.55325V80.97854c0,13.82762,1.9872,50.09408,20.20323,89.58975,22.19043,48.10687,54.89649,76.42452,98.78057,99.19456,43.47007-22.52163,76.34172-50.75648,98.69777-99.19456,18.216-39.49567,20.20323-75.76213,20.20323-89.58975V30.55325C204.59913,11.34362,162.53667,3.47761,122.4614,3.47761,82.71734,3.47761,40.48927,11.26087,3.47761,30.55325Zm101.099,87.76814a12.514,12.514,0,0,1-10.43281.4968s.66241-1.1592,1.3248-2.23561a4.76394,4.76394,0,0,0,4.80241,1.0764,4.8547,4.8547,0,0,0,2.56681-3.2292,44.3578,44.3578,0,0,1,6.04441-.828A8.10429,8.10429,0,0,1,104.57657,118.32139Zm21.942-10.51562c-.828-.3312-1.73881-.66241-2.56681-.9936-2.4012-.9936-4.554-1.8216-4.554-1.8216a10.2243,10.2243,0,0,0-1.49041.1656c-.2484,0-.5796.0828-.828.0828-.66241.0828-1.4076.2484-2.23561.414a89.9771,89.9771,0,0,0-19.044,6.37561l-.7452-1.49041-.9936-2.07L84.04214,122.213a54.46689,54.46689,0,0,0,10.18441.828,71.85881,71.85881,0,0,0,12.834-1.1592,98.51641,98.51641,0,0,0,9.27362-8.94242c.7452-.828,1.4076-1.5732,1.9044-2.1528.66241-.7452,1.0764-1.242,1.242-1.4076,2.3184-.66241,4.14-.9936,7.038-1.5732Zm-4.05721,145.811c5.796-2.98081,11.26081-6.21,16.47723-9.522C133.72223,247.40681,128.25742,250.636,122.4614,253.61682Zm-71.95332-114.761c.6624.9936,1.49041,2.23561,2.40121,3.56041a30.16594,30.16594,0,0,0,3.5604,3.726l3.3948,9.77042a55.35285,55.35285,0,0,0-5.71321,7.452,108.26334,108.26334,0,0,1-7.12081-15.64923Zm13.91043,3.726c.9108-.66241,2.07-1.656,2.898-2.23561,0,0,4.71961-.66241,9.85322-.9936a66.99263,66.99263,0,0,1,7.61761-.1656l3.312,3.89161a32.88428,32.88428,0,0,0-7.36921,1.57321,43.83657,43.83657,0,0,1,11.01242,4.88521l-.2484,1.73881a48.66868,48.66868,0,0,0-9.68762.1656,50.8289,50.8289,0,0,1,8.36282,5.13361c-.2484.66241-.4968,1.3248-.7452,1.9044a44.53112,44.53112,0,0,0-8.61121-.7452,50.04126,50.04126,0,0,1,6.70681,5.13361c-.828,1.5732-1.4076,2.484-1.4076,2.484-9.68762-2.898-21.61084-8.36281-24.67444-9.77042l-.1656-9.522A22.91091,22.91091,0,0,1,64.41851,142.58184Zm2.4012,37.50846a25.46461,25.46461,0,0,1-7.94882-11.592,14.35318,14.35318,0,0,1,2.484-7.78321c10.764,7.61761,27.40684,14.40723,27.40684,14.40723A83.17085,83.17085,0,0,0,66.81971,180.0903ZM18.05043,89.25855c1.9044,37.92247,17.63643,106.481,82.46893,151.193,8.61121-4.63681,14.40723-12.42,17.88483-18.54723,6.78961,8.28,7.53481,19.78923,7.53481,19.78923,7.28641-34.19646-24.75724-60.6097-24.75724-60.6097s23.10124,11.26082,39.08166,29.55965a28.75369,28.75369,0,0,0-.4968-8.11442,54.58477,54.58477,0,0,0-2.898-9.936s16.64282,13.49642,25.668,33.61686c.1656-.16559.414-.33121.5796-.4968,22.85285-23.68084,23.51524-59.11929,23.51524-59.11929-4.968-20.61724-13.74482-27.82085-13.74482-27.82085,1.73881,9.43921,2.81521,19.872,2.81521,19.872a63.65169,63.65169,0,0,1-15.48363,20.45163c-8.94242.9936-16.06323.0828-28.566-4.05721a84.56325,84.56325,0,0,1-18.79564-9.35641,59.31306,59.31306,0,0,0-8.77682.2484c-4.05721.414-8.85961,1.49041-8.85961,1.49041,5.382-9.43922,8.52841-19.12683,9.108-23.43244a84.58925,84.58925,0,0,0-11.592-10.43281c-8.94241.414-15.98043.91081-15.98043.91081l2.9808-12.08882s-1.9872,1.656-4.30561,3.9744c-2.40121,2.4012-5.13361,5.46481-5.13361,5.46481a69.14179,69.14179,0,0,1-12.75122,3.312,29.19011,29.19011,0,0,1-7.53481-3.4776c9.02522-13.33082,23.598-18.63,23.598-18.63-2.6496-3.1464-2.484-5.63041-2.484-5.63041,3.726-2.484,7.12081-4.4712,10.18442-6.12721a14.84445,14.84445,0,0,0-.9108,3.312,89.60626,89.60626,0,0,1,8.28-5.96161c3.4776-2.1528,6.87242-3.89161,6.87242-3.89161,2.23561-7.28641,6.12721-13.16522,7.12081-13.99322a17.35588,17.35588,0,0,1,3.06361-.2484c.2484,2.40121,2.898,6.21,4.05721,7.61761a43.35942,43.35942,0,0,0-10.51562,5.54761s12.33722-3.312,23.34964-3.64321c14.82122-.4968,24.012,2.81521,24.012,2.81521a77.79384,77.79384,0,0,1-5.2992,6.624c24.59164-8.36281,27.15845-14.73843,40.48926-17.55363a56.23418,56.23418,0,0,1,9.27362,2.3184,15.73387,15.73387,0,0,1,3.89162,6.78961c-1.82161,14.15883-7.53482,30.13925-7.53482,30.13925-4.47122,5.46481-12.25442,10.43281-12.25442,10.43281,7.78322-.9936,19.20964-4.4712,19.20964-4.4712,7.12082,5.13361,16.47723,16.47723,20.36883,21.36244a208.45746,208.45746,0,0,0,12.006-59.2021c-3.2292-1.656-43.55287-21.36243-104.32817-21.36243C61.6033,67.89611,21.27964,87.60255,18.05043,89.25855ZM170.89949,128.837c5.2992-2.98081,12.50283-9.68761,12.50283-9.68761,3.8088-11.26081,7.038-26.41324,7.038-26.41324,0-1.49041-1.7388-3.89161-1.7388-3.89161a29.09726,29.09726,0,0,0-6.04442-1.5732c-6.12721.9936-14.15883,7.038-20.53443,12.08882a66.99605,66.99605,0,0,0,9.108-1.0764c-1.1592,2.98081-5.2992,10.764-5.2992,10.764a38.61633,38.61633,0,0,0,7.78321-.9936,116.69357,116.69357,0,0,1-5.796,13.662Z" fill="#041e42"/><path d="M116.3342,112.93938a98.51119,98.51119,0,0,1-9.27362,8.94242,71.85881,71.85881,0,0,1-12.834,1.1592,71.85881,71.85881,0,0,0,12.834-1.1592A98.51119,98.51119,0,0,0,116.3342,112.93938Z" fill="#b99758"/><path d="M227.038,39.24731V80.813c-31.38126-14.32443-70.21452-20.78284-104.57657-20.78284-34.52766,0-73.27812,6.45841-104.65937,20.78284V39.24731S59.0365,17.802,122.4614,17.802,227.038,39.24731,227.038,39.24731Zm-94.72336,80.39893c.4968-2.07.1656-8.44562.1656-8.44562s3.64321,1.242,9.27362,5.71321c0,0-.7452,4.14-1.8216,8.36281l-19.62363,8.94242a179.19162,179.19162,0,0,0,12.006-14.57283ZM119.4806,109.379a23.25373,23.25373,0,0,1,0,2.6496c-2.56681,4.30561-7.28641,9.43922-10.26722,12.33722a64.57945,64.57945,0,0,1-17.802,1.3248l-7.36921-3.4776L94.061,108.46823s13.74482-5.46481,25.33684-3.3948c0,0,2.1528.7452,4.554,1.73881.828.3312,1.73881.66241,2.56681.9936-2.898.5796-4.71961.91081-7.038,1.5732-.1656.1656-.5796.66241-1.242,1.4076.66241-.7452,1.0764-1.24206,1.242-1.40762Zm46.45088-.3312s4.14-7.78321,5.2992-10.764a66.99606,66.99606,0,0,1-9.108,1.0764c6.37561-5.05081,14.40723-11.09522,20.53443-12.08882a29.09726,29.09726,0,0,1,6.04442,1.5732s1.7388,2.4012,1.7388,3.89161c0,0-3.2292,15.15242-7.038,26.41324,0,0-7.20361,6.70681-12.50282,9.68761l-2.98081-7.20361a112.561,112.561,0,0,0,5.796-13.57923,38.61637,38.61637,0,0,1-7.7832.99362Zm48.85209,39.41286c-3.89162-4.88521-13.248-16.22883-20.36883-21.36243,0,0-11.42642,3.4776-19.20963,4.4712,0,0,7.78321-4.968,12.25443-10.43281,0,0,5.71321-15.98043,7.53482-30.22205a15.71269,15.71269,0,0,0-3.89162-6.70681,56.23418,56.23418,0,0,0-9.27362-2.3184c-13.33083,2.81521-15.89763,9.19081-40.48926,17.55363a77.79382,77.79382,0,0,0,5.2992-6.624s-9.19082-3.3948-24.012-2.898c-11.01242.414-23.34964,3.726-23.34964,3.726A43.36015,43.36015,0,0,1,109.793,88.09939c-1.1592-1.4076-3.80881-5.21641-4.05721-7.61761a17.35538,17.35538,0,0,0-3.06361.2484c-.9936.828-4.88521,6.70681-7.12082,13.99322,0,0-3.3948,1.73881-6.87242,3.89161a89.61156,89.61156,0,0,0-8.28,5.96161,17.36106,17.36106,0,0,1,.828-3.312c-2.9808,1.656-6.37561,3.64321-10.10162,6.12721,0,0-.1656,2.484,2.484,5.63041,0,0-14.57283,5.2992-23.598,18.63a29.18924,29.18924,0,0,0,7.53481,3.4776,69.14075,69.14075,0,0,0,12.75122-3.312s2.7324-3.06361,5.13361-5.46481c2.3184-2.3184,4.30561-4.05721,4.30561-4.05721l-2.9808,12.17162s7.038-.4968,15.89763-.91081a80.53666,80.53666,0,0,1,11.67482,10.43281c-.5796,4.30561-3.80881,13.99322-9.108,23.43244,0,0,4.80241-1.0764,8.85961-1.49041a59.30732,59.30732,0,0,1,8.77682-.2484,84.56234,84.56234,0,0,0,18.79564,9.35641c12.50282,4.14,19.62363,5.0508,28.56605,4.0572a63.40744,63.40744,0,0,0,15.48363-20.53443s-1.0764-10.35-2.81521-19.78924c0,0,8.7768,7.20361,13.74482,27.82085,0,0-.6624,35.43847-23.51524,59.11929-.1656.16559-.414.33121-.5796.4968a197.89523,197.89523,0,0,1-23.598,17.88484c-5.21641,3.312-10.68121,6.54122-16.47723,9.522,0,0,2.98081-6.29281,3.4776-11.92322,0,0-.7452-11.50921-7.53481-19.78923-3.4776,6.12721-9.27362,13.91043-17.88483,18.54723C35.68689,195.65677,19.95486,127.181,18.05046,89.25858c3.22921-1.656,43.63567-21.36244,104.411-21.36244s101.099,19.70643,104.32818,21.36244a208.45759,208.45759,0,0,1-12.00606,59.20211ZM9.936,34.44486V80.97854c0,13.33082,1.9044,48.52088,19.62363,86.85734,20.61724,44.79486,51.99848,73.44372,92.90175,94.72336,41.06887-21.36243,72.28452-50.09409,92.90175-94.72336C232.99958,129.49941,234.904,94.30935,234.904,80.97853V34.44486C202.36354,17.47083,159.72147,9.936,122.4614,9.936,85.03574,9.93608,42.47647,17.47088,9.936,34.44486Z" fill="#b99758"/><path d="M98.53217,31.8781c-2.07.1656-4.05721.414-6.04441.6624v16.146c1.98721-.2484,3.9744-.414,6.04441-.5796ZM206.58636,44.54653c-1.98721-.6624-3.89162-1.242-5.8788-1.9044v5.382c1.98721.5796,3.89162,1.242,5.8788,1.9044ZM32.95445,40.90327c4.63681-1.656,9.35642-3.14641,14.076-4.554v5.46481q-4.347,1.242-8.694,2.7324v5.382q3.105-1.1178,6.21-1.9872v5.46481c-2.07.5796-4.14,1.3248-6.21,1.9872V66.24011c-1.8216.5796-3.56041,1.1592-5.382,1.8216ZM59.6989,32.87165q2.7324-.621,5.46481-1.242V53.24049c2.9808-.6624,5.87881-1.242,8.85962-1.8216V56.9665c-4.80241.828-9.522,1.9044-14.32443,3.06361Zm27.24125-.4968c.828-1.656,1.73881-3.312,2.56681-4.968,3.9744-.4968,7.94882-.9108,12.006-1.242.828,1.4904,1.656,2.9808,2.56681,4.47121v17.802c-.91081,1.5732-1.73881,3.22921-2.56681,4.88521-4.05721.3312-8.03161.6624-12.006,1.242-.828-1.49041-1.7388-2.9808-2.56681-4.38841Zm30.13925-6.95521c4.88521-.1656,9.68761-.0828,14.57282.0828.91081,1.5732,1.73881,3.14641,2.56681,4.80241v6.87241c-.828,1.5732-1.656,3.0636-2.56681,4.63681a12.82036,12.82036,0,0,0-1.8216-.0828c1.4904,3.64321,2.98081,7.28641,4.38841,11.01242-1.9044-.0828-3.89161-.1656-5.87881-.2484-1.4904-3.64321-2.898-7.20361-4.38841-10.84682H122.627V52.49528h-5.5476Zm30.13925,1.0764c1.9044.16564,3.726.3312,5.5476.5796V54.23409c-1.8216-.2484-3.64321-.414-5.5476-.5796Zm18.46443,2.4012c4.80241.828,9.60481,1.7388,14.40722,2.81521.828,1.7388,1.7388,3.47761,2.56681,5.21641v17.802c-.828,1.3248-1.7388,2.7324-2.56681,4.14-4.80241-1.0764-9.60481-2.07-14.40723-2.81521Zm29.64245,11.34362c.828-1.3248,1.656-2.56681,2.484-3.89161,3.89162,1.1592,7.78321,2.4012,11.592,3.726.828,1.8216,1.656,3.726,2.484,5.54761V68.06171c-1.7388-.6624-3.56041-1.242-5.2992-1.8216V55.39329c-1.98721-.6624-3.89162-1.3248-5.8788-1.9044V64.33571c-1.7388-.5796-3.56041-1.0764-5.382-1.5732ZM17.802,80.81294C49.18328,66.48851,87.93375,60.0301,122.4614,60.0301c34.36206,0,73.19532,6.45841,104.57656,20.78284V39.24727S185.88631,17.802,122.4614,17.802,17.802,39.24726,17.802,39.24726ZM171.23069,51.50174l5.96162,1.242V36.51486c-1.98721-.414-3.9744-.828-5.96161-1.1592ZM128.67142,30.88451c-1.98721-.0828-4.05721-.0828-6.04441-.0828v5.382c1.98721,0,4.05721,0,6.04441.0828ZM100.271,117.659a4.764,4.764,0,0,1-4.80241-1.0764c-.66241,1.0764-1.3248,2.23561-1.3248,2.23561a12.51408,12.51408,0,0,0,10.43281-.4968,8.1041,8.1041,0,0,0,4.30561-4.71961,44.36131,44.36131,0,0,0-6.04441.828A4.85475,4.85475,0,0,1,100.271,117.659Z" fill="#c8102e"/><path d="M86.11215,165.35188s.5796-.9936,1.3248-2.484a46.58189,46.58189,0,0,0-6.624-5.13361,44.53122,44.53122,0,0,1,8.61122.7452c.2484-.5796.4968-1.242.7452-1.9044a50.82889,50.82889,0,0,0-8.36282-5.13361,42.92815,42.92815,0,0,1,9.68762-.1656l.2484-1.73881a43.83648,43.83648,0,0,0-11.01242-4.88521,32.88426,32.88426,0,0,1,7.36921-1.5732l-3.312-3.89161a66.99263,66.99263,0,0,0-7.61761.1656c-5.13361.3312-9.85322.9936-9.85322.9936-.828.5796-1.9872,1.5732-2.898,2.23561a22.91064,22.91064,0,0,0-3.1464,3.4776l.1656,9.522C64.50131,156.98906,76.42453,162.45387,86.11215,165.35188Zm20.94844-43.47007a71.85881,71.85881,0,0,1-12.834,1.1592,54.46694,54.46694,0,0,1-10.18442-.828l7.36921,3.4776a61.77959,61.77959,0,0,0,17.802-1.4076,66.97274,66.97274,0,0,0,10.26722-12.25442,23.25373,23.25373,0,0,0,0-2.6496c-.1656.1656-.5796.66241-1.242,1.4076-.4968.5796-1.1592,1.3248-1.9044,2.07A88.90562,88.90562,0,0,1,107.06058,121.8818ZM58.8709,168.49828a25.46456,25.46456,0,0,0,7.94881,11.592,83.17093,83.17093,0,0,1,21.942-4.968s-16.64283-6.78961-27.40685-14.40723A14.35314,14.35314,0,0,0,58.8709,168.49828Zm-4.63681-5.13361a52.28833,52.28833,0,0,1,5.63041-7.452l-3.3948-9.77041a24.44431,24.44431,0,0,1-3.47761-3.726c-.9936-1.3248-1.8216-2.56681-2.484-3.56041l-3.47761,8.85961A103.37758,103.37758,0,0,0,54.23409,163.36467Zm122.9582-110.621-5.96161-1.242v-16.146c1.98721.3312,3.9744.7452,5.96161,1.1592Zm5.46482,1.98725V36.92886c-.828-1.7388-1.7388-3.47761-2.56681-5.21641-4.80241-1.0764-9.60481-1.9872-14.40723-2.81521V56.05569c4.80241.7452,9.60481,1.7388,14.40723,2.81521C180.91831,57.46329,181.8291,56.05573,182.65711,54.73094ZM152.76625,27.0757c-1.8216-.2484-3.64321-.414-5.5476-.5796v27.1584c1.9044.16564,3.726.3312,5.5476.5796ZM92.48775,32.5405c1.98721-.2484,3.9744-.4968,6.04441-.6624V48.10688c-2.07.1656-4.05721.3312-6.04441.5796ZM101.513,53.32334c.828-1.656,1.656-3.312,2.56681-4.88521V30.63605c-.91081-1.4904-1.73881-2.9808-2.56681-4.47121-4.05721.3312-8.03161.7452-12.006,1.242-.828,1.656-1.7388,3.312-2.56681,4.968v17.802c.828,1.4076,1.73881,2.898,2.56681,4.30561,3.9744-.49676,7.94882-.9108,12.006-1.1592Zm99.19457-10.68127c1.98721.6624,3.89162,1.242,5.8788,1.90437v5.382c-1.98721-.6624-3.89162-1.3248-5.8788-1.9044Zm0,10.84682c1.98721.6624,3.89162,1.242,5.8788,1.9044V66.24011c1.7388.5796,3.56041,1.1592,5.2992,1.8216V45.62287c-.828-1.8216-1.656-3.726-2.484-5.54761-3.8088-1.3248-7.70042-2.56681-11.592-3.726-.828,1.3248-1.656,2.56681-2.484,3.89161V62.7625c1.82161.4968,3.56041.9936,5.382,1.5732ZM38.33646,55.39329c2.07-.6624,4.14-1.4076,6.21-1.9872V47.94128q-3.105.86941-6.21,1.9872v-5.382q4.347-1.49034,8.694-2.7324V36.34926c-4.71961,1.4076-9.43922,2.898-14.076,4.554V68.06171c1.8216-.6624,3.56041-1.242,5.382-1.8216ZM122.627,30.80165c1.98721,0,4.05721,0,6.04441.0828v5.382c-1.98721-.0828-4.05721-.0828-6.04441-.0828Zm0,10.84682h1.3248c1.4904,3.64321,2.898,7.20361,4.38841,10.84682,1.98721.0828,3.9744.16564,5.87881.2484-1.4076-3.726-2.898-7.36921-4.38841-11.01242a12.82036,12.82036,0,0,1,1.8216.0828c.91081-1.5732,1.73881-3.0636,2.56681-4.63681V30.30485c-.828-1.656-1.656-3.22921-2.56681-4.80241-4.88521-.1656-9.68761-.2484-14.57282-.1656V52.49529h5.5476ZM74.02332,51.41888c-2.9808.5796-5.87881,1.1592-8.85961,1.8216V31.62965l-5.46481,1.242V60.0301c4.80241-1.1592,9.522-2.23564,14.32443-3.06365Z" fill="#fff"/><path d="M141.75384,116.9138c-5.63041-4.4712-9.27362-5.71321-9.27362-5.71321s.3312,6.37561-.1656,8.44562a179.19163,179.19163,0,0,1-12.006,14.57282l19.62363-8.94242C141.00864,121.0538,141.75384,116.9138,141.75384,116.9138Z" fill="#041e42"/><path d="M95.79976,112.02859a89.97691,89.97691,0,0,1,19.044-6.37561c.828-.1656,1.5732-.3312,2.23561-.414.2484,0,.5796-.0828.828-.0828a10.22286,10.22286,0,0,1,1.49041-.1656c-11.592-1.98721-25.33684,3.4776-25.33684,3.4776l.9936,2.07Zm41.06887,80.56453a54.58561,54.58561,0,0,1,2.898,9.936,28.75291,28.75291,0,0,1,.4968,8.11442c-15.98043-18.29882-39.08166-29.55965-39.08166-29.55965s32.04366,26.41324,24.75724,60.6097c-.4968,5.63041-3.4776,11.92322-3.4776,11.92322,5.796-2.98081,11.26082-6.21,16.47723-9.522a189.47144,189.47144,0,0,0,23.598-17.88484C153.51145,206.08954,136.86863,192.59312,136.86863,192.59312Z" fill="#fff"/></svg>