<?xml version="1.0" encoding="UTF-8" standalone="no"?>
<svg xmlns:rdf="http://www.w3.org/1999/02/22-rdf-syntax-ns#" xmlns="http://www.w3.org/2000/svg" height="183.51343" width="154.21172" version="1.1" xmlns:cc="http://creativecommons.org/ns#" xmlns:dc="http://purl.org/dc/elements/1.1/" viewBox="0 0 154.21172 183.51343"><path d="M111.89862,65.3838,93.297,39.98424,86.53,43.10511a45.38965,45.38965,0,0,0-5.19115-1.32869l1.51409-1.545V27.13H81.1534C83.53268,21.13541,77.569,10.04241,97.37576,0H50.50088c-32.7846,10.28961-23.422,70.11146-23.422,70.11146l3.52257-1.32869a18.23321,18.23321,0,0,0-.4944,8.25023s-3.399,8.18842.5253,16.22235l-2.37928,3.33717.618,17.70554c-6.17994,5.37655-17.551,1.29779-19.80672,10.9694-1.82308,2.44108-7.81763,4.326-7.81763,4.326-10.8458,28.39684,52.31323,31.734,64.086,47.49286a59.83115,59.83115,0,0,0,27.22265,6.42715A60.647,60.647,0,0,0,111.89862,65.3838Z" fill="#fff"/><path d="M110.32275,67.45408l-17.82914-24.349-5.77825,2.68828A51.27772,51.27772,0,0,0,76.17856,43.4141l4.20236-4.20236V29.63283H77.41456c5.16026-8.37382-2.96637-17.02575,11.89639-27.13H50.9026C21.91866,12.26719,29.1492,66.6816,29.1492,66.6816l5.53105-2.10118s-3.46077,7.26144-1.97758,12.73068c0,0-3.83156,8.28113.80339,16.19145l-2.71917,3.83157.58709,17.73644c-3.86246,6.73614-18.50893,3.05907-19.86852,10.6295-.55619,3.21357-8.28112,5.87094-8.28112,5.87094-8.12663,24.16359,53.64191,28.70583,63.80792,43.59951a58.19449,58.19449,0,1,0,43.2905-107.71643Z"/><path d="M113.87621,123.78427s5.53105,4.75856,5.53105,6.39624-11.5565,8.46652-11.5565,8.46652c3.86246-5.34565,7.01423-7.94123,7.01423-10.25871,0-2.28658-4.10966-2.93547-5.22205-7.29234-4.17147,6.73614-4.38776,11.0621-4.38776,11.0621l2.07028,14.12118-5.62375-.6798c-11.74189,11.711-10.41321,24.59618-10.41321,24.59618,7.35413-21.3517,32.3211-21.6607,32.3211-41.83821C121.75563,126.87425,113.87621,123.78427,113.87621,123.78427ZM47.22552,151.96483c8.34292,1.854,19.49772,8.93,19.49772,8.93a17.81436,17.81436,0,0,0-3.18267-5.77825,58.15554,58.15554,0,0,1-22.4332-13.16328L19.72476,130.21144s12.76159.0618,11.6183-9.36262c-5.531,4.04786-16.12965,2.472-16.12965,6.82884,0,4.82036,8.40472,9.70252,24.967,20.2084L14.56451,136.14417l1.545-1.66858-1.76128-3.42987c-.1854,1.29778-6.70524,1.32868-6.70524,5.71645,0,15.44986,54.6925,21.19721,64.704,35.81278,1.2051-7.60134-13.75037-14.83189-25.12147-20.61014ZM53.56,27.06816,50.68629,8.621C30.32337,17.30385,33.04255,59.04937,33.04255,59.04937L53.74536,28.98394H72.87229c3.30627-6.55074-.74159-16.96393,6.58164-21.4444H54.23975Z" fill="#ce1126"/><path d="M91.10312,124.495l3.49167-1.69949-3.83157-14.89366,1.545-4.60406L102.845,99.2499l3.02818,1.32869-.4017-4.78946s-2.99728-2.90457-6.51984-2.90457c-3.399,0-4.75856,2.44108-9.42442,8.09573,0,0-2.68828-7.04514-13.62678-7.04514-9.239,0-20.332,4.29506-20.332,4.29506-1.97758,2.68828-1.69949,8.34292,11.64919,7.35413l-1.91578,8.77552,7.41593,1.05059s-9.42442,20.76461-4.26416,25.77036c4.91305,4.72765,9.94971,9.79521,11.711,9.79521,6.85974,0,11.2166-1.79219,12.05089-2.65738a3.34543,3.34543,0,0,0,.64889-2.31748c0-3.83157-3.80067-4.26416-6.82884-4.26416-6.48894,0-8.80642,2.25568-8.80642,2.25568l1.236-4.17147c.80339-3.09,13.90487-1.45229,13.90487-1.45229l-.309-4.07877-2.59557.4017-5.50015-.86519-12.97788.3708-.618-.49439,15.44986-2.71917,3.36807.6798,2.90457-.7107L90.516,129.53161l-1.69949.64889-.309-3.399-9.239-1.57588,7.29234-2.50288Z" fill="#fff"/><path d="M75.83865,158.91725l8.25023,5.62376,2.163-7.47773-7.19963-1.05059ZM104.35909,104.75l-2.93547.5562c-1.20509,4.85125-4.635,2.84278-5.19115,1.66859L94.842,112.04238l2.31748,7.57043,1.94668,4.14056L95.769,126.56525l2.59557,2.90457.89609,2.10118,3.73886-12.35989,3.02818-4.944c.5253-.83429-2.472-6.767-2.472-6.767Z" fill="#fff"/><path d="M71.35819,43.754l2.81188-2.96637H59.6472L47.50361,50.58284l10.7531-12.60708H75.86955V32.8464H56.71173L39.56238,56.083l.80339,3.98606A36.55679,36.55679,0,0,1,71.35819,43.754Zm35.84367,48.26534L90.48512,82.44043l-33.4644,11.402s12.39079-3.21357,21.5371-3.21357c9.91881,0,11.64919,5.34565,11.64919,5.34565s3.05907-5.53105,7.694-5.53105a15.924,15.924,0,0,1,9.45531,3.24447Z" fill="#bf910c"/><path d="M115.91559,75.20991V94.05874a37.11882,37.11882,0,0,1-10.8458,63.74612c-6.05634,9.88792-4.38776,15.69706-3.61527,17.39654a53.07709,53.07709,0,0,0,14.46107-99.99148Zm-14.39927,60.81065-2.13208,5.68555,3.30627.55619ZM60.1107,131.2311a115.65989,115.65989,0,0,1,2.75008-22.95849S46.11313,109.4468,49.0795,95.29473c0,0-3.64617,2.99728-6.95244,1.69949a8.806,8.806,0,0,0,6.30354-8.52832l1.63769,4.97486,43.4759-17.36564,17.11845,14.89366-.3708-6.70524c-1.91578.7107-6.05634-2.13208-6.05634-2.13208l.64889-.5253s2.781,1.42138,5.253.4017l-.3708-6.58164-18.84883-26.203L86.65355,50.83s-9.20812-3.89336-18.169-3.89336c-13.65768,0-30.65252,13.50318-30.65252,28.42774l9.14632.6798,24.967-18.53983L46.85471,82.06965s-2.22478-4.35686-5.40745-4.35686c-2.22478,0-5.59285,2.62648-5.59285,9.08452,0,5.06755,2.472,7.53953,2.472,7.53953L35.39092,98.292c2.163,31.734-1.42139,34.97847-7.94123,33.1863l12.73068,6.149c0-22.2169-.83429-28.98394,1.35959-28.98394,3.55347,0,3.18267,22.0933,4.14056,32.4756,0,0,9.17722,10.66041,27.46985,12.42168,0-.0309-13.03968-8.28112-13.03968-22.30959Z" fill="#bf910c"/><path d="M72.09978,80.61736,70.802,79.814c-8.77552,1.66859-7.29234-1.32869-9.42442-1.32869.83429-.83429.0618-2.472,2.31748-4.69675l-.2163-.27809c-5.43835,3.24447-2.28658,5.22205-6.02544,7.16873l.1545.3399C62.08828,79.505,60.45059,84.94333,72.09978,80.61736Z"/><path d="M44.56814,82.13145c2.59558,6.458-2.03938,10.9694-3.92427,10.9694s-3.02817-2.34838-3.02817-2.34838,1.42139,4.60406,4.26416,4.60406S50.13009,88.5586,44.56814,82.13145Zm16.12965,2.472a5.63693,5.63693,0,0,0-1.69949-1.08149c-4.97486.4944-4.23326-1.45229-5.96365-1.39049,1.545-1.17419-.0927-2.13208,1.11239-3.33717l-.2163-.2472c-4.44956,2.50288-1.76128,4.10966-4.35686,5.19115l.1236.309C52.20037,83.30564,51.92227,87.3844,60.69779,84.60343Zm17.21114-9.60981-.7107-.27809c-6.33444,2.96637-6.33444.0927-7.60133.46349.64889-1.08149-1.236-2.41017,3.05907-6.51984l-.0618-.4017c-7.44683,4.944-3.89336,6.85973-6.24174,9.20812l.2472.309C69.13341,76.13691,69.31881,80.741,77.90893,74.99362Z"/><path d="M100.58933,76.6313l-.5253.27809c5.28385,5.68554,5.31476,1.73038,7.16873,3.33717l.2472-.4017c-1.51409-2.31748.618-4.41866-4.23326-9.42442v.4944c2.68828,3.55346,1.45229,5.43835,2.25568,6.92154C104.23549,77.2184,103.98829,79.59767,100.58933,76.6313Zm-5.65465-6.149c-9.05362,2.50288-9.79521-10.784-7.26144-13.53408C77.69263,63.34442,89.95982,78.48528,94.93468,70.48226ZM56.37183,52.56042C39.50059,60.93425,40.11858,72.64524,40.11858,72.64524l5.50015.2472L56.03194,66.0945c-7.41594,2.03938-19.31233,1.11239.33989-13.53408ZM83.31639,69.36987l-.46349-.1545c-4.944,2.62648-5.253.618-5.99455.83429.5253-1.08149-1.69949-1.35959,1.48319-5.43835l-.1236-.74159c-6.95244,6.149-1.97758,6.33444-4.97486,8.83732l.3399.1236c2.65736-2.163,2.163,2.31748,9.7334-3.46077Z"/><path d="M137.60719,127.30684c-.618,3.21357-3.24446.2163-4.69677,7.72494,1.14329.2163,2.13209-2.31748,3.61526-2.03938,1.45229.309,1.45229,3.02817,2.56468,3.24446C140.54265,128.72823,136.98919,130.52041,137.60719,127.30684ZM102.28881,74.99362l.2163-.27809c-1.51409-2.62648,1.48319-3.18267-2.65738-9.11542l-.1545.77249c1.854,3.89336.2472,4.72765.6798,5.62375-.6798-.1854-1.32869,1.20509-3.64617-1.51409l-.3708.1236c3.64617,5.90184,4.44957,2.25567,5.93276,4.38775Z"/><path d="M140.38817,122.85727a2.75007,2.75007,0,1,1-2.75009-2.75007A2.75009,2.75009,0,0,1,140.38817,122.85727Z"/><path d="M133.55932,142.07691c-1.66858,2.81187-3.15177-.89609-7.01423,5.71645.98879.5871,2.75007-1.45229,4.07876-.7107,1.29779.77249.3399,3.33718,1.32869,3.92426C135.8459,144.39439,131.89074,144.88878,133.55932,142.07691Zm-17.61284,15.85156c.74159.86519,3.12087-.43259,4.07876.7107.95789,1.17419-.80339,3.24446-.0618,4.14057,5.90185-4.88216,2.00848-5.74735,4.54226-7.84852-2.53377,2.10117-2.62648-1.8849-8.55922,2.99726Z"/><path d="M126.2979,97.61221c3.95516,6.58164,5.40745,2.87367,7.076,5.68554-1.69949-2.81188,2.25568-2.34838-1.66859-8.93-.98879.58709-.0618,3.15177-1.32869,3.92426S127.28668,97.02511,126.2979,97.61221Zm6.39624,12.35989c1.57588,7.50863,4.14057,4.48046,4.85126,7.694-.7107-3.21357,2.90458-1.48319,1.29778-8.99182-1.14329.2472-1.05059,2.99728-2.53378,3.27537-1.45229.3399-2.50289-2.19388-3.61528-1.97758Zm-11.0312,43.35231c.89609.74159,3.02818-.95788,4.14056,0,1.14329.9888-.2163,3.33718.6798,4.10967,4.97486-5.84.98879-6.02545,3.12087-8.52832C127.47208,151.40862,126.66869,147.48436,121.66294,153.32441Z"/><path d="M108.80865,161.72913c.5562,1.0197,3.15177.18539,3.89336,1.51409.7107,1.29778-1.42138,3.02818-.86519,4.04786,6.73614-3.64616,3.09-5.253,5.96365-6.82884C114.92679,162.00722,115.57569,158.083,108.80865,161.72913Zm14.73916-71.90364c1.82308-2.41017-7.10694-5.46925-7.10694-5.46925s5.253,7.84852,7.10694,5.46924Zm6.05634,6.98334c-2.13208-2.472,1.854-2.65738-3.12087-8.49742-.89609.74159.46349,3.12087-.64889,4.10966-1.17419.95789-3.27537-.74159-4.17147,0,5.00576,5.80915,5.80915,1.91578,7.94123,4.38775Zm6.67433,37.85216c-1.17419,3.09-3.24446-.309-5.93275,6.85974,1.05059.4017,2.472-1.94668,3.89337-1.42139,1.39049.55619.927,3.24446,2.00848,3.64616C138.93587,136.54587,135.1043,137.751,136.27849,134.661Zm-6.27264-31.116c2.81187,7.13784,4.85126,3.708,6.05635,6.767-1.20509-3.05907,2.62648-1.94668-.18539-9.08452-1.08149.43259-.55619,3.12087-1.94668,3.67707s-2.84278-1.79219-3.92426-1.3596Z"/><path d="M56.49543,101.13478l14.70827,2.03938c.46349,2.472,4.29506,4.78946,6.95244,1.08149l4.017,1.14329-3.21357,2.53378,6.17994.83429,2.44108-4.75856L73.583,98.32291Zm45.26809,66.0945s9.45531.18539,8.55922-2.68828C109.39574,161.66734,101.76353,167.22928,101.76353,167.22928Z"/></svg>